<svg viewBox="0 0 130 40" xmlns="http://www.w3.org/2000/svg" xmlns:xlink="http://www.w3.org/1999/xlink"><defs><path id="google-play-white-a" d="M0 27.31h84.776V0H0z"/></defs><g fill="none" fill-rule="evenodd"><path d="M4 0h122a4 4 0 0 1 4 4v32a4 4 0 0 1-4 4H4a4 4 0 0 1-4-4V4a4 4 0 0 1 4-4" fill="#FFF"/><path d="M7.463 7.398C7.172 7.705 7 8.183 7 8.803v22.115c0 .62.172 1.097.463 1.405l.073.073 12.39-12.39v-.292L7.536 7.324l-.073.074z" fill="#00D5FF"/><path d="M19.926 19.714v.293l4.129 4.13.095-.051 4.892-2.782c1.398-.793 1.398-2.093 0-2.887l-4.892-2.78-.094-.053-4.13 4.13z" fill="#FFCD00"/><path d="M7.463 32.323c.24.255.563.393.938.398h.042c.333-.005.705-.113 1.098-.336l14.609-8.3-4.224-4.224L7.463 32.323z" fill="#F83547"/><path d="M7.463 7.398L19.926 19.86l4.224-4.225-14.609-8.3C9.139 7.108 8.758 7 8.42 7c-.383 0-.713.139-.957.398" fill="#00F076"/><path d="M24.056 23.991L9.541 32.24c-.812.46-1.538.43-2.004.01l-.074.075.073.072h.001c.466.42 1.192.45 2.004-.01l14.608-8.302-.093-.093zM7.463 32.178C7.172 31.87 7 31.392 7 30.773v.146c0 .619.172 1.097.463 1.405l.074-.074-.074-.072zM29.042 21.158l-4.986 2.833.093.093 4.893-2.78c.7-.397 1.048-.92 1.048-1.443-.059.473-.414.937-1.048 1.297" fill="#000"/><path d="M9.541 7.482l19.501 11.08c.634.36.99.824 1.048 1.298.001-.522-.349-1.046-1.048-1.443l-19.5-11.08C8.142 6.543 7 7.203 7 8.803v.145c0-1.6 1.143-2.26 2.541-1.466" fill="#FFF"/><g transform="translate(37 7)"><path d="M6.377 3.478c0 .837-.248 1.504-.745 2.002-.565.592-1.3.888-2.204.888-.866 0-1.603-.3-2.208-.9-.607-.6-.91-1.346-.91-2.233 0-.89.303-1.633.91-2.234C1.825.4 2.562.1 3.428.1c.429 0 .84.083 1.23.25.392.168.705.392.94.67l-.528.529c-.397-.475-.944-.713-1.642-.713-.632 0-1.178.223-1.64.667-.46.444-.69 1.02-.69 1.73s.23 1.287.69 1.73a2.278 2.278 0 0 0 1.64.666c.67 0 1.228-.223 1.676-.67.29-.29.458-.694.502-1.215H3.428v-.72h2.907c.028.157.042.307.042.453" fill="#101928"/><path d="M6.377 3.478c0 .837-.248 1.504-.745 2.002-.565.592-1.3.888-2.204.888-.866 0-1.603-.3-2.208-.9-.607-.6-.91-1.346-.91-2.233 0-.89.303-1.633.91-2.234C1.825.4 2.562.1 3.428.1c.429 0 .84.083 1.23.25.392.168.705.392.94.67l-.528.529c-.397-.475-.944-.713-1.642-.713-.632 0-1.178.223-1.64.667-.46.444-.69 1.02-.69 1.73s.23 1.287.69 1.73a2.278 2.278 0 0 0 1.64.666c.67 0 1.228-.223 1.676-.67.29-.29.458-.694.502-1.215H3.428v-.72h2.907c.028.157.042.307.042.453z" stroke="#101928" stroke-width=".2"/><path fill="#101928" d="M10.986.972H8.254v1.902h2.463v.72H8.254v1.903h2.732v.738H7.483v-6h3.503z"/><path stroke="#101928" stroke-width=".2" d="M10.986.972H8.254v1.902h2.463v.72H8.254v1.903h2.732v.738H7.483v-6h3.503z"/><path fill="#101928" d="M14.237 6.234h-.77V.971H11.79V.234h4.123v.737h-1.676z"/><path stroke="#101928" stroke-width=".2" d="M14.237 6.234h-.77V.971H11.79V.234h4.123v.737h-1.676z"/><mask id="google-play-white-b" fill="#fff"><use xlink:href="#google-play-white-a"/></mask><path fill="#101928" mask="url(#google-play-white-b)" d="M18.896 6.234h.771v-6h-.771z"/><path stroke="#101928" stroke-width=".2" mask="url(#google-play-white-b)" d="M18.896 6.234h.771v-6h-.771z"/><path fill="#101928" mask="url(#google-play-white-b)" d="M23.087 6.234h-.771V.971H20.64V.234h4.123v.737h-1.676z"/><path stroke="#101928" stroke-width=".2" mask="url(#google-play-white-b)" d="M23.087 6.234h-.771V.971H20.64V.234h4.123v.737h-1.676z"/><path d="M28.738 4.957a2.2 2.2 0 0 0 1.63.673c.642 0 1.186-.223 1.63-.673.444-.45.667-1.024.667-1.722s-.223-1.273-.667-1.722a2.203 2.203 0 0 0-1.63-.675c-.643 0-1.186.225-1.63.674-.443.45-.666 1.025-.666 1.723 0 .698.223 1.272.666 1.722m3.83.502c-.59.607-1.323.91-2.2.91-.877 0-1.61-.303-2.2-.91-.59-.606-.883-1.347-.883-2.224 0-.877.294-1.62.884-2.225C28.758.403 29.49.1 30.368.1c.872 0 1.603.304 2.196.914.592.609.888 1.348.888 2.22 0 .878-.295 1.619-.884 2.224" fill="#101928" mask="url(#google-play-white-b)"/><path d="M28.738 4.957a2.2 2.2 0 0 0 1.63.673c.642 0 1.186-.223 1.63-.673.444-.45.667-1.024.667-1.722s-.223-1.273-.667-1.722a2.203 2.203 0 0 0-1.63-.675c-.643 0-1.186.225-1.63.674-.443.45-.666 1.025-.666 1.723 0 .698.223 1.272.666 1.722zm3.83.502c-.59.607-1.323.91-2.2.91-.877 0-1.61-.303-2.2-.91-.59-.606-.883-1.347-.883-2.224 0-.877.294-1.62.884-2.225C28.758.403 29.49.1 30.368.1c.872 0 1.603.304 2.196.914.592.609.888 1.348.888 2.22 0 .878-.295 1.619-.884 2.224z" stroke="#101928" stroke-width=".2" mask="url(#google-play-white-b)"/><path fill="#101928" mask="url(#google-play-white-b)" d="M34.533 6.234v-6h.938l2.917 4.667h.034l-.034-1.156V.235h.772v6h-.805l-3.05-4.895h-.035l.034 1.157v3.737z"/><path stroke="#101928" stroke-width=".2" mask="url(#google-play-white-b)" d="M34.533 6.234v-6h.938l2.917 4.667h.034l-.034-1.156V.235h.772v6h-.805l-3.05-4.895h-.035l.034 1.157v3.737z"/><path d="M65.895 23.234h1.865v-12.5h-1.865v12.5zm16.806-7.998l-2.138 5.42h-.065l-2.219-5.42h-2.01l3.329 7.575-1.898 4.214h1.946l5.131-11.789h-2.076zm-10.583 6.578c-.61 0-1.462-.306-1.462-1.062 0-.964 1.061-1.335 1.978-1.335.819 0 1.206.178 1.704.418a2.26 2.26 0 0 1-2.22 1.98zm.226-6.852c-1.351 0-2.75.596-3.329 1.914l1.656.692c.355-.692 1.014-.917 1.705-.917.965 0 1.947.58 1.962 1.608v.13c-.338-.194-1.061-.483-1.946-.483-1.785 0-3.603.981-3.603 2.814 0 1.673 1.464 2.751 3.105 2.751 1.254 0 1.946-.563 2.38-1.223h.064v.965h1.802V18.42c0-2.219-1.657-3.458-3.796-3.458zm-11.531 1.796h-2.655v-4.285h2.655c1.394 0 2.186 1.154 2.186 2.142 0 .97-.792 2.143-2.186 2.143zm-.049-6.026h-4.471v12.502h1.865v-4.736h2.606c2.068 0 4.102-1.497 4.102-3.883 0-2.385-2.034-3.883-4.102-3.883zM36.383 21.816c-1.289 0-2.368-1.079-2.368-2.56 0-1.5 1.079-2.595 2.368-2.595 1.273 0 2.272 1.095 2.272 2.594 0 1.482-.999 2.561-2.272 2.561zm2.143-5.88h-.065c-.419-.499-1.224-.95-2.239-.95-2.127 0-4.076 1.87-4.076 4.27 0 2.383 1.949 4.236 4.076 4.236 1.015 0 1.82-.45 2.239-.967h.065v.612c0 1.628-.87 2.497-2.272 2.497-1.143 0-1.852-.82-2.142-1.514l-1.627.677c.466 1.127 1.707 2.513 3.769 2.513 2.192 0 4.044-1.289 4.044-4.43v-7.637h-1.772v.693zm3.061 7.298h1.868v-12.5h-1.868v12.5zm4.623-4.124c-.048-1.644 1.274-2.48 2.224-2.48.741 0 1.369.37 1.579.901l-3.803 1.58zm5.8-1.418c-.354-.95-1.434-2.707-3.641-2.707-2.191 0-4.011 1.724-4.011 4.254 0 2.384 1.804 4.253 4.22 4.253 1.95 0 3.078-1.192 3.545-1.885l-1.45-.967c-.483.71-1.143 1.176-2.095 1.176-.95 0-1.627-.435-2.061-1.289l5.686-2.352-.193-.483zm-45.308-1.4v1.803h4.318c-.129 1.015-.467 1.756-.983 2.271-.629.63-1.611 1.322-3.335 1.322-2.658 0-4.736-2.143-4.736-4.8 0-2.659 2.078-4.803 4.736-4.803 1.434 0 2.481.564 3.254 1.29l1.273-1.273c-1.079-1.03-2.513-1.82-4.527-1.82C3.061 10.281 0 13.245 0 16.886c0 3.64 3.061 6.605 6.702 6.605 1.965 0 3.448-.645 4.607-1.853 1.193-1.192 1.563-2.867 1.563-4.22 0-.419-.032-.806-.096-1.128H6.702zm11.079 5.524c-1.289 0-2.401-1.063-2.401-2.577 0-1.53 1.112-2.578 2.401-2.578 1.289 0 2.4 1.047 2.4 2.578 0 1.514-1.111 2.577-2.4 2.577zm0-6.83c-2.352 0-4.269 1.788-4.269 4.253 0 2.45 1.917 4.253 4.269 4.253 2.352 0 4.269-1.804 4.269-4.253 0-2.465-1.917-4.254-4.269-4.254zm9.313 6.83c-1.289 0-2.4-1.063-2.4-2.577 0-1.53 1.111-2.578 2.4-2.578s2.4 1.047 2.4 2.578c0 1.514-1.111 2.577-2.4 2.577zm0-6.83c-2.352 0-4.269 1.788-4.269 4.253 0 2.45 1.917 4.253 4.269 4.253 2.353 0 4.27-1.804 4.27-4.253 0-2.465-1.917-4.254-4.27-4.254z" fill="#101928" mask="url(#google-play-white-b)"/></g></g></svg>
